<?xml version="1.0" encoding="UTF-8"?>
<svg version="1.1" xmlns="http://www.w3.org/2000/svg" width="317" height="72">
<path d="M0 0 C104.61 0 209.22 0 317 0 C317 23.76 317 47.52 317 72 C212.39 72 107.78 72 0 72 C0 48.24 0 24.48 0 0 Z " fill="#1A1A1A" transform="translate(0,0)"/>
<path d="M0 0 C3.58552881 1.63687185 4.79315055 2.68972583 7 6 C7.4673854 10.75175157 7.4911613 13.03586856 5.3125 17.3125 C2.30751235 20.80478294 0.30239664 22.69225391 -4.3671875 23.31640625 C-8.7367971 23.51738236 -11.26993186 23.44698049 -15.0625 21.125 C-17.9828207 17.92206762 -18.45772266 15.53294819 -18.41796875 11.16796875 C-17.65395199 7.20507809 -15.00794346 4.55261257 -12 2 C-8.12886902 -0.32576931 -4.43159653 -0.58148185 0 0 Z " fill="#027E52" transform="translate(88,22)"/>
<path d="M0 0 C5.5 3 5.5 3 7 6 C7.34741553 11.29808682 7.53527987 14.75766415 4 19 C-0.3358575 22.91284701 -3.98569437 23.7015123 -9.65625 23.4453125 C-12 23 -12 23 -15.0625 20.9375 C-17.39595144 17.39968652 -18 15.2362654 -18 11 C-15.03221055 2.59126324 -8.72953772 -1.21468521 0 0 Z " fill="#018053" transform="translate(197,22)"/>
<path d="M0 0 C11.59339347 -0.55697798 11.59339347 -0.55697798 17 3 C18 4 18 4 18.25 7.3125 C17.99427763 11.08440501 17.73569953 12.46694488 15 15 C14.01 15 13.02 15 12 15 C12.495 15.763125 12.99 16.52625 13.5 17.3125 C15 20 15 20 15 23 C12.6875 23.3125 12.6875 23.3125 10 23 C8.98133771 21.34467377 7.98189187 19.67739862 7 18 C4.40877257 17.11341534 4.40877257 17.11341534 2 17 C1.67 18.98 1.34 20.96 1 23 C-0.65 23 -2.3 23 -4 23 C-3.32545897 15.1753241 -1.73123042 7.65443386 0 0 Z " fill="#027E52" transform="translate(210,22)"/>
<path d="M0 0 C5.94 0 11.88 0 18 0 C17.67 1.65 17.34 3.3 17 5 C12.71 5 8.42 5 4 5 C4 6.65 4 8.3 4 10 C7.3 10 10.6 10 14 10 C14 10.99 14 11.98 14 13 C10.37 13 6.74 13 3 13 C2.67 14.98 2.34 16.96 2 19 C5.96 19 9.92 19 14 19 C14 20.32 14 21.64 14 23 C8.06 23 2.12 23 -4 23 C-2.850477 15.28177413 -1.59599089 7.63795638 0 0 Z " fill="#027C51" transform="translate(253,22)"/>
<path d="M0 0 C3 1.5 3 1.5 5 3 C4.67 3.99 4.34 4.98 4 6 C3.16855469 5.96519531 2.33710937 5.93039063 1.48046875 5.89453125 C0.39378906 5.86746094 -0.69289063 5.84039063 -1.8125 5.8125 C-2.89144531 5.77769531 -3.97039062 5.74289063 -5.08203125 5.70703125 C-7.97403564 5.76008829 -7.97403564 5.76008829 -9.8671875 7.2890625 C-11.74119749 10.1194638 -11.29814274 12.72042981 -11 16 C-9.10244856 18.34973818 -9.10244856 18.34973818 -5.875 18.125 C-4.92625 18.08375 -3.9775 18.0425 -3 18 C-2.34 15.69 -1.68 13.38 -1 11 C0.65 11 2.3 11 4 11 C3.77169299 12.62818946 3.51656424 14.2526349 3.25 15.875 C3.11078125 16.77992187 2.9715625 17.68484375 2.828125 18.6171875 C2 21 2 21 0.23046875 22.29296875 C-3.84361301 23.58440272 -7.79080904 23.68790985 -12 23 C-14.82424288 20.80977082 -16.41508603 19.16982793 -18 16 C-18.26015644 11.93505557 -18.09587489 8.32933195 -15.44140625 5.109375 C-10.46051279 0.8429964 -6.69553741 -0.76813049 0 0 Z " fill="#027E52" transform="translate(115,22)"/>
<path d="M0 0 C1.98 0 3.96 0 6 0 C6.99 1.98 7.98 3.96 9 6 C9.44730469 5.566875 9.89460938 5.13375 10.35546875 4.6875 C15.35506003 0.08233276 15.35506003 0.08233276 18.9375 -0.375 C19.618125 -0.25125 20.29875 -0.1275 21 0 C19.81914033 3.07023515 18.21143658 4.78346645 15.8125 6.9375 C13.33821656 9.22424703 13.33821656 9.22424703 12.9375 12.5 C14.17027528 15.40064771 15.56586406 18.19408186 17 21 C17 21.66 17 22.32 17 23 C14.75 23.375 14.75 23.375 12 23 C9.6875 20 9.6875 20 8 17 C7.56429688 17.433125 7.12859375 17.86625 6.6796875 18.3125 C1.75471698 22.91766724 1.75471698 22.91766724 -2.4375 23.375 C-3.283125 23.25125 -4.12875 23.1275 -5 23 C-4.60167969 22.54109375 -4.20335937 22.0821875 -3.79296875 21.609375 C-2.70235671 20.34628174 -1.61791696 19.07783802 -0.5390625 17.8046875 C0.59580419 16.47395549 1.75914898 15.16738499 2.9375 13.875 C4.21894518 12.00480391 4.21894518 12.00480391 3.875 9.5625 C2.91844771 6.76116831 1.55858441 4.50728797 0 2 C0 1.34 0 0.68 0 0 Z " fill="#027E52" transform="translate(273,22)"/>
<path d="M0 0 C1.65 0 3.3 0 5 0 C5.268125 0.825 5.53625 1.65 5.8125 2.5 C7.12524922 6.36915561 8.55101284 10.17994294 10 14 C10.59167969 12.989375 11.18335938 11.97875 11.79296875 10.9375 C12.59019466 9.62442203 13.38842431 8.31195311 14.1875 7 C14.57486328 6.33226562 14.96222656 5.66453125 15.36132812 4.9765625 C16.54296875 3.0625 16.54296875 3.0625 19 0 C21.80078125 -0.4375 21.80078125 -0.4375 24 0 C22.20855017 5.11396435 19.48784655 9.66256492 16.75 14.3125 C16.28464844 15.14845703 15.81929687 15.98441406 15.33984375 16.84570312 C14.01116344 19.08762238 12.77516227 21.09083038 11 23 C7.640625 23.54296875 7.640625 23.54296875 5 23 C4.16301505 19.54253984 3.33103324 16.08389511 2.5 12.625 C2.26152344 11.64015625 2.02304688 10.6553125 1.77734375 9.640625 C1.55175781 8.69960938 1.32617188 7.75859375 1.09375 6.7890625 C0.88427734 5.91975098 0.67480469 5.05043945 0.45898438 4.15478516 C0 2 0 2 0 0 Z " fill="#027E52" transform="translate(157,22)"/>
<path d="M0 0 C3 1.5 3 1.5 5 3 C4.67 3.99 4.34 4.98 4 6 C3.01 6.33 2.02 6.66 1 7 C0.67 6.67 0.34 6.34 0 6 C-5.41994818 5.34534681 -5.41994818 5.34534681 -10 7.625 C-11.27051847 10.64248136 -11.42279102 12.7586022 -11 16 C-7.05881468 18.62745688 -4.74927353 18.31098196 -0.1875 17.5 C0.8953125 17.2525 0.8953125 17.2525 2 17 C2 18.32 2 19.64 2 21 C-2.30678776 23.44148966 -6.13610811 23.72828328 -11 23 C-13.87029869 21.20606332 -15.49131638 20.01736724 -17 17 C-17.34741553 11.70191318 -17.53527987 8.24233585 -14 4 C-9.20015421 -0.13009987 -6.08940572 -0.67660064 0 0 Z " fill="#018053" transform="translate(150,22)"/>
<path d="M0 0 C6.6 0 13.2 0 20 0 C19.67 1.65 19.34 3.3 19 5 C16.36 5 13.72 5 11 5 C10.87625 6.299375 10.7525 7.59875 10.625 8.9375 C10.10136672 13.71849952 9.13686165 18.33114101 8 23 C6.35 23 4.7 23 3 23 C3.67581523 16.91766294 4.73638028 10.98685848 6 5 C3.69 5 1.38 5 -1 5 C-0.67 3.35 -0.34 1.7 0 0 Z " fill="#037A50" transform="translate(231,22)"/>
<path d="M0 0 C1.65 0 3.3 0 5 0 C4.27637073 6.39205856 3.19656638 12.68027076 2 19 C5.3 19 8.6 19 12 19 C12 20.32 12 21.64 12 23 C6.39 23 0.78 23 -5 23 C-3.79903956 15.14756638 -2.24936659 7.61785486 0 0 Z " fill="#027D52" transform="translate(55,22)"/>
<path d="M0 0 C2 1.0625 2 1.0625 3 3 C3 7.24882452 2.65986013 9.28515153 -0.25 12.4375 C-3.23969704 14.1361915 -4.63433041 14.61999177 -8 14 C-9.8125 12.9375 -9.8125 12.9375 -11 11 C-11.49573337 7.10495209 -11.58016848 4.90506283 -9.4375 1.5625 C-6.09493717 -0.58016848 -3.89504791 -0.49573337 0 0 Z " fill="#191D1B" transform="translate(196,27)"/>
<path d="M0 0 C2 2 2 2 2.4375 5.875 C2.35148262 9.25425418 2.15947554 9.81774225 -0.1875 12.5 C-3.198557 14.10589707 -4.65585985 14.52802213 -8 14 C-8.99 13.34 -9.98 12.68 -11 12 C-11.3984375 9.94140625 -11.3984375 9.94140625 -11.375 7.5625 C-11.38273437 6.78003906 -11.39046875 5.99757813 -11.3984375 5.19140625 C-10.23759744 -1.19321408 -5.27283238 -0.41847876 0 0 Z " fill="#191D1C" transform="translate(87,27)"/>
<path d="M0 0 C1.65 0 3.3 0 5 0 C3.68 7.59 2.36 15.18 1 23 C-0.98 23 -2.96 23 -5 23 C-4.35901851 19.54074898 -3.71139409 16.08277476 -3.0625 12.625 C-2.88009766 11.64015625 -2.69769531 10.6553125 -2.50976562 9.640625 C-2.33251953 8.69960938 -2.15527344 7.75859375 -1.97265625 6.7890625 C-1.72914429 5.48509521 -1.72914429 5.48509521 -1.48071289 4.15478516 C-1 2 -1 2 0 0 Z " fill="#027E52" transform="translate(126,22)"/>
<path d="M0 0 C1.98 0 3.96 0 6 0 C2.17653497 7.76895554 -1.79734264 15.42925554 -6 23 C-7.65 23 -9.3 23 -11 23 C-9.57791918 18.13812161 -7.51050027 14.12538239 -4.9375 9.8125 C-2.11129079 5.08109198 -2.11129079 5.08109198 0 0 Z " fill="#E54D36" transform="translate(33,22)"/>
<path d="M0 0 C1.65 0 3.3 0 5 0 C3.2010497 5.07634826 0.50973545 9.63713611 -2.125 14.3125 C-2.59292969 15.14845703 -3.06085937 15.98441406 -3.54296875 16.84570312 C-4.6926259 18.89866233 -5.84503802 20.95002202 -7 23 C-8.65 23 -10.3 23 -12 23 C-10.2010497 17.92365174 -7.50973545 13.36286389 -4.875 8.6875 C-4.40707031 7.85154297 -3.93914063 7.01558594 -3.45703125 6.15429688 C-2.3073741 4.10133767 -1.15496198 2.04997798 0 0 Z " fill="#E64D36" transform="translate(45,22)"/>
<path d="M0 0 C2.64 0 5.28 0 8 0 C8.625 2.375 8.625 2.375 9 5 C7 7 7 7 3.375 7.125 C2.26125 7.08375 1.1475 7.0425 0 7 C0 4.69 0 2.38 0 0 Z " fill="#191E1C" transform="translate(214,27)"/>
</svg>
